<svg xmlns="http://www.w3.org/2000/svg" width="57" height="75" viewBox="0 0 57 75"><g fill="#fff"><path d="M8.714 74.5c-.767 0-1.402-.067-1.91-.205-.507-.135-.912-.361-1.214-.676-.303-.314-.52-.739-.649-1.271-.13-.531-.195-1.192-.195-1.983v-4.488c0-.791.064-1.453.195-1.984.13-.531.346-.957.649-1.279.302-.32.707-.547 1.214-.678.507-.129 1.143-.193 1.91-.193h7.158c.47 0 .881.064 1.233.193.352.131.652.291.899.483s.445.396.593.612c.148.216.26.41.334.584l-1.594 1.631c-.112-.247-.292-.473-.539-.676-.248-.205-.612-.307-1.093-.307h-6.973c-.556 0-.945.117-1.167.352-.223.236-.335.656-.335 1.262v4.506c0 .272.019.508.056.705s.108.365.213.5c.104.137.256.238.454.307.197.068.457.102.779.102h7.065c.494 0 .859-.102 1.095-.307.234-.203.408-.428.519-.676l1.595 1.613c-.074.173-.186.367-.334.584s-.346.42-.593.612c-.248.191-.547.353-.899.481-.353.131-.765.195-1.234.195h-7.232zM24.847 74.5c-.767 0-1.403-.067-1.909-.205-.507-.135-.912-.361-1.215-.676-.303-.314-.52-.739-.649-1.271s-.195-1.192-.195-1.983v-4.488c0-.791.065-1.453.195-1.984s.346-.957.649-1.279c.303-.32.708-.547 1.215-.678.506-.129 1.143-.193 1.909-.193h7.158c.469 0 .881.064 1.232.193.353.131.652.291.9.483.246.192.445.396.593.612.148.216.261.41.334.584l-1.595 1.631c-.111-.247-.291-.473-.538-.676-.247-.205-.612-.307-1.095-.307h-6.972c-.556 0-.945.117-1.168.352-.223.236-.334.656-.334 1.262v4.506c0 .272.018.508.056.705.037.197.108.365.213.5.104.137.256.238.454.307s.457.102.779.102h7.065c.494 0 .859-.102 1.094-.307.234-.203.408-.428.52-.676l1.595 1.613c-.074.173-.186.367-.334.584-.147.217-.347.42-.593.612-.248.191-.548.353-.9.481-.352.131-.764.195-1.232.195h-7.232zM37.104 61.742h2.504v12.758h-2.504zM41.165 74.5v-2.504h7.27c.519 0 .877-.113 1.074-.342.199-.229.297-.629.297-1.197v-8.715h2.485v8.715c0 .768-.062 1.406-.185 1.92-.124.512-.334.928-.631 1.242s-.693.541-1.188.676c-.494.138-1.112.205-1.854.205h-7.268zM34.173 30.199s-5.474 6.452-7.465 6.898c-1.992.446-6.517-4.778-6.517-4.778s-4.473-4.474-3.972-7.44c-1.793 2.046-3.496 4.246-3.759 5.486-.587 2.759 5.573 9.114 5.573 9.114s6.354 6.161 9.113 5.574c2.761-.588 10.06-8.502 10.06-8.502s11.737-12.576 12.642-16.42c1.531-4.236-2.386-8.409-2.386-8.409-5.375 10.819-13.289 18.477-13.289 18.477M20.168.515c-3.746.411-15.108 12.706-15.108 12.706-4.439 4.497-4.917 7.873-4.409 11.344 0 0 6.827-8.35 13.284-14.329 4.849-4.49 6.476-5.637 7.597-5.552.372.028.688.192 1.047.414.103.064.2.098.291.11-.016-.621-.066-1.26-.171-1.862-.287-1.647-.984-3.002-2.531-2.831M27.302 47.785c-3.306.703-10.917-6.677-10.917-6.677s-7.379-7.611-6.676-10.917c.704-3.306 9.932-12.301 9.932-12.301s11.325-11.328 18.62-12.96c-3.016-2.225-6.201-4.088-8.141-3.814-1.791.254-4.408 1.747-7.251 4.092l-.188 3.42s-.001 2.222-4.429 2.461c-2.252.122-7.586 5.944-12.615 11.672-2.2 2.709-4.036 5.411-4.277 7.115-.643 4.543 10.44 15.927 10.44 15.927s11.382 11.083 15.925 10.439l16.156-12.604s11.961-11.614 12.604-16.157c.24-1.696-1.154-4.345-2.995-6.998-2.462 5.402-13.887 17.37-13.887 17.37s-8.997 9.229-12.301 9.932"/></g></svg>